<svg width="32" height="32" viewBox="0 0 32 32" fill="none" xmlns="http://www.w3.org/2000/svg">
<g id="Group 78" opacity="0.7">
<g id="Group">
<path id="Vector" d="M9.87512 28.8066H21.7558" stroke="#111B21" stroke-width="1.5" stroke-linecap="round" stroke-linejoin="round"/>
<path id="Vector_2" d="M27.8544 28.8066H30.4091C31.2682 28.8066 30.8895 24.07 30.5165 23.0563C30.3356 22.562 30.4261 21.4357 24.4914 20.6348C23.5758 20.4596 21.7558 17.3498 17.6581 16.38C15.1542 15.7856 11.8873 15.7856 9.58125 16.405C5.83393 17.4062 6.1787 19.1957 3.68049 19.8715C3.0305 20.0467 1.01837 20.5848 1.01837 22.318C1.01837 24.8271 1.02967 24.4079 1.00706 25.603C0.995758 26.3288 0.995758 27.0171 1.02402 27.5489C1.05793 28.3123 1.5327 28.8066 2.22791 28.8066H3.62397" stroke="#111B21" stroke-width="1.5" stroke-linecap="round" stroke-linejoin="round"/>
<path id="Vector_3" d="M9.99954 27.5178C9.99954 29.3825 8.63174 30.8904 6.95308 30.8904C5.27442 30.8904 3.90662 29.3762 3.90662 27.5178C3.90662 25.6595 5.27442 24.1453 6.95308 24.1453C8.63174 24.1453 9.99954 25.6595 9.99954 27.5178Z" stroke="#111B21" stroke-width="1.5" stroke-linecap="round" stroke-linejoin="round"/>
<path id="Vector_4" d="M27.8544 27.5178C27.8544 29.3825 26.4866 30.8904 24.8079 30.8904C23.1292 30.8904 21.7558 29.3762 21.7558 27.5178C21.7558 25.6595 23.1236 24.1453 24.8079 24.1453C26.4922 24.1453 27.8544 25.6595 27.8544 27.5178Z" stroke="#111B21" stroke-width="1.5" stroke-linecap="round" stroke-linejoin="round"/>
</g>
<path id="Vector_5" d="M7.77827 9.32827C8.10043 8.74011 8.93129 7.62634 8.93129 7.62634C8.93129 7.62634 9.75649 8.74011 10.0843 9.32827C10.5252 10.1292 10.61 10.7111 10.4687 11.2617C10.3613 11.6935 9.9091 12.5444 8.93129 12.5444C7.95348 12.5444 7.50132 11.6935 7.39393 11.2617C7.25828 10.7111 7.33741 10.1292 7.77827 9.32827Z" stroke="#111B21" stroke-width="1.5" stroke-linecap="round" stroke-linejoin="round"/>
<path id="Vector_6" d="M14.8151 9.32827C15.1372 8.74011 15.9681 7.62634 15.9681 7.62634C15.9681 7.62634 16.7933 8.74011 17.1211 9.32827C17.562 10.1292 17.6468 10.7111 17.5055 11.2617C17.3981 11.6935 16.9459 12.5444 15.9681 12.5444C14.9903 12.5444 14.5381 11.6935 14.4307 11.2617C14.2951 10.7111 14.3742 10.1292 14.8151 9.32827Z" stroke="#111B21" stroke-width="1.5" stroke-linecap="round" stroke-linejoin="round"/>
<path id="Vector_7" d="M21.8576 9.32827C22.1797 8.74011 23.0106 7.62634 23.0106 7.62634C23.0106 7.62634 23.8358 8.74011 24.1636 9.32827C24.6045 10.1292 24.6892 10.7111 24.5479 11.2617C24.4405 11.6935 23.9884 12.5444 23.0106 12.5444C22.0328 12.5444 21.5806 11.6935 21.4732 11.2617C21.3376 10.7111 21.4167 10.1292 21.8576 9.32827Z" stroke="#111B21" stroke-width="1.5" stroke-linecap="round" stroke-linejoin="round"/>
<path id="Vector_8" d="M24.531 5.61782H15.9681H7.40521L8.54693 2.7771H23.3893L24.531 5.61782Z" stroke="#111B21" stroke-width="1.5" stroke-linecap="round" stroke-linejoin="round"/>
<path id="Vector_9" d="M13.7355 2.77702L14.0124 1" stroke="#111B21" stroke-width="1.5" stroke-linecap="round" stroke-linejoin="round"/>
<path id="Vector_10" d="M17.9237 1L18.2063 2.77702" stroke="#111B21" stroke-width="1.5" stroke-linecap="round" stroke-linejoin="round"/>
</g>
</svg>
