<svg width="69" height="69" viewBox="0 0 69 69" fill="none" xmlns="http://www.w3.org/2000/svg">
<g id="Group 137">
<rect id="Rectangle 7" x="0.5" y="0.5" width="68" height="68" rx="34" fill="#F1F0F0" stroke="#F1F0F0"/>
<path id="Intersect" fill-rule="evenodd" clip-rule="evenodd" d="M56.4947 61.1023C50.5276 66.0356 42.8729 69 34.5258 69C25.9167 69 18.0441 65.8467 12 60.632C15.4909 57.0143 19.7537 54.3415 24.4629 52.8007C20.9454 50.704 18.2125 47.5091 16.6839 43.7066C15.1553 39.9042 14.9155 35.7044 16.0015 31.7523C17.0874 27.8002 19.4389 24.3143 22.6949 21.8299C25.951 19.3455 29.9314 18 34.0251 18C38.1188 18 42.0993 19.3455 45.3553 21.8299C48.6113 24.3143 50.9628 27.8002 52.0487 31.7523C53.1347 35.7044 52.8949 39.9042 51.3663 43.7066C49.8377 47.5091 47.1048 50.704 43.5873 52.8007C48.4983 54.4075 52.9239 57.2455 56.4947 61.1023Z" fill="#111B21"/>
</g>
</svg>
