<svg width="32" height="29" viewBox="0 0 32 29" fill="none" xmlns="http://www.w3.org/2000/svg">
<g id="Group 132">
<path id="Vector" d="M26.9869 28H23.7559C23.3927 27.9996 23.0444 27.8552 22.7876 27.5983C22.5307 27.3415 22.3863 26.9932 22.3859 26.63V25.577H8.16424V26.63C8.16387 26.9932 8.01942 27.3415 7.76258 27.5983C7.50574 27.8552 7.15749 27.9996 6.79426 28H3.56432C3.20097 27.9997 2.85258 27.8553 2.59555 27.5984C2.33852 27.3416 2.19384 26.9933 2.19324 26.63V16.9374C2.19414 16.1458 2.50905 15.3868 3.06886 14.8271C3.62867 14.2674 4.38766 13.9527 5.17928 13.9519H15.2031C15.3523 13.9519 15.4954 14.0112 15.6009 14.1167C15.7063 14.2221 15.7656 14.3652 15.7656 14.5144C15.7656 14.6636 15.7063 14.8067 15.6009 14.9121C15.4954 15.0176 15.3523 15.0769 15.2031 15.0769H5.17928C4.68594 15.0774 4.21292 15.2735 3.86402 15.6223C3.51512 15.9711 3.31883 16.4441 3.31823 16.9374V26.63C3.31829 26.6622 3.3247 26.6942 3.3371 26.7239C3.34951 26.7537 3.36765 26.7807 3.39051 26.8035C3.41336 26.8262 3.44047 26.8443 3.4703 26.8565C3.50012 26.8688 3.53207 26.8751 3.56432 26.875H6.79426C6.85921 26.8749 6.92149 26.8491 6.96742 26.8032C7.01335 26.7572 7.03918 26.695 7.03925 26.63V25.0145C7.03921 24.9406 7.05373 24.8675 7.08198 24.7992C7.11024 24.7309 7.15167 24.6689 7.20391 24.6167C7.25615 24.5644 7.31817 24.523 7.38644 24.4948C7.4547 24.4665 7.52786 24.452 7.60174 24.452H22.9484C23.0223 24.452 23.0954 24.4665 23.1637 24.4948C23.232 24.523 23.294 24.5644 23.3462 24.6167C23.3985 24.6689 23.4399 24.7309 23.4682 24.7992C23.4964 24.8675 23.5109 24.9406 23.5109 25.0145V26.63C23.511 26.695 23.5368 26.7572 23.5827 26.8032C23.6287 26.8491 23.6909 26.8749 23.7559 26.875H26.9869C27.0519 26.8749 27.1142 26.8491 27.1601 26.8032C27.206 26.7572 27.2319 26.695 27.2319 26.63V19.5626C27.2319 19.4134 27.2912 19.2703 27.3967 19.1648C27.5022 19.0593 27.6452 19.0001 27.7944 19.0001C27.9436 19.0001 28.0867 19.0593 28.1922 19.1648C28.2976 19.2703 28.3569 19.4134 28.3569 19.5626V26.63C28.3565 26.9932 28.2121 27.3415 27.9552 27.5983C27.6984 27.8552 27.3502 27.9996 26.9869 28Z" fill="#111B21" stroke="#111B21" stroke-width="0.4"/>
<path id="Vector_2" d="M19.213 22.375H11.3381C11.1889 22.375 11.0459 22.3157 10.9404 22.2102C10.8349 22.1048 10.7756 21.9617 10.7756 21.8125C10.7756 21.6633 10.8349 21.5202 10.9404 21.4148C11.0459 21.3093 11.1889 21.25 11.3381 21.25H19.213C19.3622 21.25 19.5053 21.3093 19.6108 21.4148C19.7163 21.5202 19.7755 21.6633 19.7755 21.8125C19.7755 21.9617 19.7163 22.1048 19.6108 22.2102C19.5053 22.3157 19.3622 22.375 19.213 22.375Z" fill="#111B21" stroke="#111B21" stroke-width="0.4"/>
<path id="Vector_3" d="M5.17934 15.0769C5.09024 15.0768 5.00243 15.0555 4.92314 15.0149C4.84385 14.9742 4.77533 14.9153 4.72321 14.843C4.6711 14.7708 4.63687 14.6872 4.62335 14.5991C4.60982 14.511 4.61738 14.421 4.64541 14.3364L6.51637 8.7241C6.714 8.12935 7.09404 7.61201 7.60247 7.24558C8.11091 6.87914 8.72189 6.68224 9.34862 6.68286H14.0782C14.2274 6.68286 14.3704 6.74213 14.4759 6.84761C14.5814 6.9531 14.6407 7.09617 14.6407 7.24536C14.6407 7.39454 14.5814 7.53761 14.4759 7.6431C14.3704 7.74859 14.2274 7.80785 14.0782 7.80785H9.34862C8.9581 7.80741 8.57738 7.93012 8.26061 8.15852C7.94385 8.38692 7.70717 8.70939 7.58423 9.08006L5.71327 14.6924C5.67572 14.8043 5.60399 14.9016 5.5082 14.9706C5.41241 15.0396 5.29739 15.0767 5.17934 15.0769Z" fill="#111B21" stroke="#111B21" stroke-width="0.4"/>
<path id="Vector_4" d="M6.79434 20.731C6.3636 20.7308 5.94257 20.603 5.58448 20.3636C5.22639 20.1242 4.94732 19.784 4.78257 19.386C4.61781 18.9881 4.57476 18.5502 4.65886 18.1277C4.74297 17.7053 4.95045 17.3172 5.25507 17.0127C5.55969 16.7082 5.94776 16.5008 6.37024 16.4168C6.79271 16.3328 7.23059 16.376 7.62853 16.5408C8.02647 16.7057 8.36659 16.9849 8.60589 17.343C8.84518 17.7012 8.9729 18.1222 8.9729 18.553C8.9723 19.1305 8.74257 19.6843 8.33412 20.0926C7.92567 20.5009 7.37189 20.7305 6.79434 20.731ZM6.79434 17.4999C6.5861 17.5 6.38257 17.5619 6.20949 17.6777C6.0364 17.7934 5.90153 17.9579 5.82192 18.1503C5.74231 18.3428 5.72154 18.5545 5.76224 18.7587C5.80293 18.9629 5.90327 19.1505 6.05055 19.2977C6.19784 19.4449 6.38547 19.5451 6.58971 19.5857C6.79395 19.6263 7.00564 19.6054 7.19802 19.5257C7.39039 19.446 7.55481 19.311 7.67049 19.1378C7.78617 18.9647 7.84791 18.7611 7.84791 18.5529C7.84761 18.2736 7.7365 18.0059 7.53896 17.8084C7.34143 17.611 7.07362 17.5001 6.79434 17.4999Z" fill="#111B21" stroke="#111B21" stroke-width="0.4"/>
<path id="Vector_5" d="M3.72365 15.0768H2.35257C2.11923 15.0774 1.88806 15.032 1.67232 14.9431C1.45657 14.8542 1.26048 14.7236 1.09527 14.5588C0.930066 14.394 0.798994 14.1983 0.709563 13.9827C0.620131 13.7672 0.574097 13.5362 0.574097 13.3028C0.574097 13.0695 0.620131 12.8384 0.709563 12.6229C0.798994 12.4074 0.930066 12.2116 1.09527 12.0468C1.26048 11.882 1.45657 11.7515 1.67232 11.6626C1.88806 11.5737 2.11923 11.5282 2.35257 11.5288H3.72365C4.01568 11.5284 4.30326 11.6004 4.56072 11.7382C4.81818 11.876 5.0375 12.0755 5.19909 12.3187C5.37707 12.5858 5.47923 12.8968 5.4947 13.2174C5.51018 13.538 5.43837 13.8568 5.28695 14.1398C5.13552 14.4228 4.91015 14.6594 4.63484 14.8244C4.35954 14.9894 4.04462 15.0767 3.72365 15.0768ZM2.35257 12.6538C2.26711 12.6534 2.18243 12.67 2.10337 12.7024C2.02432 12.7349 1.95245 12.7826 1.8919 12.8429C1.83135 12.9032 1.7833 12.9749 1.75051 13.0538C1.71773 13.1327 1.70085 13.2174 1.70085 13.3028C1.70085 13.3883 1.71773 13.4729 1.75051 13.5518C1.7833 13.6307 1.83135 13.7024 1.8919 13.7627C1.95245 13.823 2.02432 13.8707 2.10337 13.9032C2.18243 13.9357 2.26711 13.9522 2.35257 13.9518H3.72365C3.84116 13.9519 3.95649 13.9201 4.05731 13.8597C4.15813 13.7993 4.24065 13.7127 4.29604 13.6091C4.35144 13.5054 4.37764 13.3887 4.37183 13.2713C4.36602 13.154 4.32843 13.0404 4.26307 12.9427C4.20393 12.8539 4.12372 12.7805 4.0296 12.7302C3.93548 12.6799 3.83037 12.6536 3.72365 12.6538L2.35257 12.6538Z" fill="#111B21" stroke="#111B21" stroke-width="0.4"/>
<path id="Vector_6" d="M23.6405 20.1251C23.5532 20.125 23.4671 20.1047 23.389 20.0657C23.0824 19.9125 15.8777 16.2244 15.8777 8.76256V3.96269C15.8776 3.88881 15.8922 3.81564 15.9204 3.74738C15.9487 3.67911 15.9901 3.61709 16.0423 3.56485C16.0946 3.51261 16.1566 3.47117 16.2249 3.44292C16.2931 3.41467 16.3663 3.40015 16.4402 3.40019C18.8931 3.22039 21.2616 2.42769 23.3285 1.09475C23.4209 1.03298 23.5295 1 23.6405 1C23.7516 1 23.8602 1.03298 23.9526 1.09475C26.0203 2.42593 28.3884 3.21849 30.8409 3.40019C30.9148 3.40015 30.988 3.41467 31.0562 3.44292C31.1245 3.47117 31.1865 3.51261 31.2388 3.56485C31.291 3.61709 31.3324 3.67911 31.3607 3.74738C31.3889 3.81564 31.4035 3.88881 31.4034 3.96269V8.76256C31.4034 16.2244 24.1986 19.9125 23.8921 20.0657C23.814 20.1047 23.7279 20.125 23.6405 20.1251ZM17.0027 4.50761V8.76256C17.0027 14.7874 22.3991 18.2135 23.6405 18.9215C24.8809 18.2113 30.2784 14.7742 30.2784 8.76256V4.50761C27.9229 4.25461 25.6543 3.47534 23.6405 2.22741C21.6268 3.47534 19.3582 4.25461 17.0027 4.50761Z" fill="#111B21" stroke="#111B21" stroke-width="0.4"/>
<path id="Vector_7" d="M22.4408 12.9254C22.367 12.9255 22.2938 12.911 22.2255 12.8827C22.1573 12.8544 22.0953 12.8129 22.0431 12.7606L19.6426 10.3607C19.5896 10.3086 19.5473 10.2466 19.5183 10.1781C19.4894 10.1097 19.4743 10.0361 19.4739 9.96181C19.4735 9.88747 19.4879 9.8138 19.5161 9.74505C19.5444 9.6763 19.586 9.61383 19.6386 9.56127C19.6912 9.5087 19.7536 9.46708 19.8224 9.4388C19.8911 9.41053 19.9648 9.39616 20.0392 9.39654C20.1135 9.39691 20.187 9.41202 20.2555 9.44099C20.3239 9.46996 20.386 9.51221 20.438 9.5653L22.4408 11.5675L26.843 7.16535C26.895 7.11226 26.9571 7.07001 27.0255 7.04104C27.094 7.01207 27.1675 6.99696 27.2419 6.99659C27.3162 6.99621 27.3899 7.01058 27.4586 7.03885C27.5274 7.06713 27.5899 7.10875 27.6424 7.16132C27.695 7.21388 27.7366 7.27635 27.7649 7.3451C27.7932 7.41385 27.8075 7.48752 27.8071 7.56186C27.8068 7.6362 27.7917 7.70972 27.7627 7.77819C27.7337 7.84665 27.6915 7.90869 27.6384 7.96072L22.8385 12.7606C22.7863 12.8129 22.7244 12.8544 22.6561 12.8827C22.5879 12.911 22.5147 12.9255 22.4408 12.9254Z" fill="#111B21" stroke="#111B21" stroke-width="0.4"/>
</g>
</svg>
