<svg width="32" height="32" viewBox="0 0 32 32" fill="none" xmlns="http://www.w3.org/2000/svg">
<g id="Group 235" opacity="0.7">
<g id="Group">
<path id="Vector" d="M16 1C24.2867 1 31 7.71329 31 16C31 24.2867 24.2867 31 16 31C7.71329 31 1 24.2867 1 16C1 7.71329 7.71329 1 16 1ZM16.4196 12.7483V5.51049C19.1469 5.72028 21.035 6.45455 23.028 8.23776L17.8881 13.2727C17.993 13.3776 18.2028 13.4825 18.3077 13.6923C18.4126 13.7972 18.5175 13.9021 18.6224 14.007L23.6573 8.97203C25.4406 10.965 26.1748 12.8531 26.3846 15.4755H19.1469C19.2517 15.7902 19.2517 16.1049 19.1469 16.4196H26.3846C26.1748 19.1469 25.4406 21.035 23.6573 23.028L18.6224 17.8881C18.4126 18.2028 18.2028 18.4126 17.8881 18.6224L23.028 23.6573C20.9301 25.4406 19.1469 26.1748 16.4196 26.3846V19.1469C16.1049 19.2517 15.7902 19.2517 15.4755 19.1469V26.3846C12.8531 26.1748 10.965 25.4406 8.97203 23.6573L14.007 18.6224C13.7972 18.4126 13.4825 18.2028 13.3776 17.8881L8.23776 23.028C6.45455 20.9301 5.72028 19.1469 5.51049 16.4196H12.7483C12.7483 16.3147 12.6434 16.1049 12.6434 16C12.6434 15.7902 12.7483 15.5804 12.7483 15.4755H5.51049C5.72028 12.8531 6.45455 10.965 8.23776 8.97203L13.3776 14.007C13.4825 13.7972 13.7972 13.4825 14.007 13.3776L8.97203 8.23776C10.965 6.45455 12.8531 5.72028 15.4755 5.51049V12.7483C15.7902 12.6434 16.1049 12.6434 16.4196 12.7483ZM17.049 12.8531C17.1538 12.958 17.2587 12.958 17.3636 12.958L22.0839 8.23776C20.6154 7.08392 18.9371 6.34965 17.049 6.13986V12.8531ZM18.9371 14.5315C18.9371 14.6364 19.042 14.7413 19.042 14.8462H25.7552C25.5455 13.0629 24.8112 11.2797 23.6573 9.81119L18.9371 14.5315ZM19.042 17.049C19.042 17.1538 18.9371 17.2587 18.9371 17.3636L23.6573 22.0839C24.8112 20.6154 25.5455 18.9371 25.7552 17.049H19.042ZM17.3636 18.9371C17.2587 18.9371 17.1538 19.042 17.049 19.042V25.7552C18.9371 25.5455 20.6154 24.8112 22.0839 23.6573L17.3636 18.9371ZM14.8462 19.042C14.7413 19.042 14.6364 18.9371 14.5315 18.9371L9.81119 23.6573C11.2797 24.8112 13.0629 25.5455 14.8462 25.7552V19.042ZM12.958 17.3636C12.958 17.2587 12.958 17.1538 12.8531 17.049H6.13986C6.34965 18.9371 7.08392 20.6154 8.23776 22.0839L12.958 17.3636ZM12.8531 14.8462C12.958 14.7413 12.958 14.6364 12.958 14.5315L8.23776 9.81119C7.08392 11.2797 6.34965 13.0629 6.13986 14.8462H12.8531ZM14.5315 12.958C14.6364 12.958 14.7413 12.958 14.8462 12.8531V6.13986C13.0629 6.34965 11.2797 7.08392 9.81119 8.23776L14.5315 12.958ZM17.8881 14.1119C17.3636 13.5874 16.7343 13.2727 16 13.2727C14.5315 13.2727 13.2727 14.5315 13.2727 16C13.2727 17.4685 14.5315 18.6224 16 18.6224C17.4685 18.6224 18.6224 17.4685 18.6224 16C18.6224 15.2657 18.3077 14.5315 17.8881 14.1119ZM16 3.62238C22.7133 3.62238 28.2727 9.18182 28.2727 16C28.2727 22.7133 22.7133 28.2727 16 28.2727C9.18182 28.2727 3.62238 22.7133 3.62238 16C3.62238 9.18182 9.18182 3.62238 16 3.62238ZM16 4.25175C9.4965 4.25175 4.25175 9.4965 4.25175 16C4.25175 22.3986 9.4965 27.6434 16 27.6434C22.3986 27.6434 27.6434 22.3986 27.6434 16C27.6434 9.4965 22.3986 4.25175 16 4.25175ZM16 1.52448C8.02797 1.52448 1.52448 8.02797 1.52448 16C1.52448 23.972 8.02797 30.3706 16 30.3706C23.972 30.3706 30.3706 23.972 30.3706 16C30.3706 8.02797 23.972 1.52448 16 1.52448Z" fill="#111B21" stroke="black" stroke-width="0.5"/>
</g>
</g>
</svg>
